# xmcd CD database file
#
# Track frame offsets:
#	182
#	19380
#	30255
#	55380
#	84105
#	125810
#	140740
#	156780
#	200880
#	216705
#	233437
#	246932
#	263060
#	274535
#	286382
#
# Disc length: 4027 seconds
#
# Revision: 0
# Processed by: cddbd v1.4PL0 Copyright (c) Steve Scherf et al.
# Submitted via: CDex 1.51
#
DISCID=e00fb90f
DTITLE=Various Artist - We Wish You A Merry Christmas D2
DYEAR=1993
DGENRE=Christmas
TTITLE0=Atlanta Symphony - Veni, Veni, Emmanuel
TTITLE1=Atlanta Symphony - Vivaldi--Gloria In Excelsis
TTITLE2=Royal Philharmonic - Jesu, Joy Of Man's Desiring
TTITLE3=Royal Philharmonic - Gesu Bambino
TTITLE4=Gregg Smith Singers - Christmas Medley
TTITLE5=New York Symphony - O Little Town Of Bethlehem
TTITLE6=Eastman Chorale and Philharmonia - Handel--Every Valley Shall Be Exhalted
TTITLE7=Eastman Chorale and Philharmonia - Handel--The Trumpet Shall Sound
TTITLE8=Eastman Chorale and Philharmonia - Handel--Hallelujah Chorus
TTITLE9=Atlanta Symphony - Bizet--L'Arlésienne Suite No.2 (Farandole)
TTITLE10=New York Symphony - We Three Kings
TTITLE11=New York Symphony - White Christmas
TTITLE12=New York Symphony - Jingle Bells
TTITLE13=New York Symphony - We Wish You A Merry Christmas
TTITLE14=Atlanta Symphony - Adeste Fidelis
EXTD=YEAR: 1993
EXTT0=
EXTT1=
EXTT2=
EXTT3=
EXTT4=
EXTT5=
EXTT6=
EXTT7=
EXTT8=
EXTT9=
EXTT10=
EXTT11=
EXTT12=
EXTT13=
EXTT14=
PLAYORDER=
